<svg width="23" height="26" viewBox="0 0 23 26" fill="none" xmlns="http://www.w3.org/2000/svg">
<path d="M15.093 12.35C15.093 13.143 14.508 13.793 13.767 13.793C13.039 13.793 12.441 13.143 12.441 12.35C12.441 11.557 13.026 10.907 13.767 10.907C14.508 10.907 15.093 11.557 15.093 12.35ZM9.022 10.907C8.281 10.907 7.696 11.557 7.696 12.35C7.696 13.143 8.294 13.793 9.022 13.793C9.763 13.793 10.348 13.143 10.348 12.35C10.361 11.557 9.763 10.907 9.022 10.907ZM22.75 2.678V26C19.4749 23.1058 20.5223 24.0638 16.718 20.527L17.407 22.932H2.665C1.196 22.932 0 21.736 0 20.254V2.678C0 1.196 1.196 0 2.665 0H20.085C21.554 0 22.75 1.196 22.75 2.678ZM19.045 15.002C19.045 10.816 17.173 7.423 17.173 7.423C15.301 6.019 13.52 6.058 13.52 6.058L13.338 6.266C15.548 6.942 16.575 7.917 16.575 7.917C13.4869 6.22451 9.85948 6.22421 6.864 7.54C6.383 7.761 6.097 7.917 6.097 7.917C6.097 7.917 7.176 6.89 9.516 6.214L9.386 6.058C9.386 6.058 7.605 6.019 5.733 7.423C5.733 7.423 3.861 10.816 3.861 15.002C3.861 15.002 4.953 16.887 7.826 16.978C7.826 16.978 8.307 16.393 8.697 15.899C7.046 15.405 6.422 14.365 6.422 14.365C6.61324 14.4989 6.92859 14.6724 6.955 14.69C9.14926 15.9188 12.2661 16.3214 15.067 15.145C15.522 14.976 16.029 14.729 16.562 14.378C16.562 14.378 15.912 15.444 14.209 15.925C14.599 16.419 15.067 16.978 15.067 16.978C17.94 16.887 19.045 15.002 19.045 15.002Z" fill="black"/>
</svg>
