<svg width="40" height="40" viewBox="0 0 40 40" fill="none" xmlns="http://www.w3.org/2000/svg">
<g clip-path="url(#clip0_7_734)">
<rect width="40" height="40" rx="20" fill="#3F3F45"/>
<path fill-rule="evenodd" clip-rule="evenodd" d="M13.3333 14.1667C12.8731 14.1667 12.5 14.5398 12.5 15V25C12.5 25.4602 12.8731 25.8333 13.3333 25.8333H26.6666C27.1269 25.8333 27.5 25.4602 27.5 25V15C27.5 14.5398 27.1269 14.1667 26.6666 14.1667H13.3333ZM10.8333 15C10.8333 13.6193 11.9526 12.5 13.3333 12.5H26.6666C28.0474 12.5 29.1666 13.6193 29.1666 15V25C29.1666 26.3807 28.0474 27.5 26.6666 27.5H13.3333C11.9526 27.5 10.8333 26.3807 10.8333 25V15Z" fill="#A1A1A9"/>
<path fill-rule="evenodd" clip-rule="evenodd" d="M10.9633 15.3864C11.2102 14.9979 11.7252 14.8831 12.1136 15.13L19.586 19.8783C19.7102 19.9556 19.8537 19.9967 20 19.9967C20.1464 19.9967 20.2898 19.9556 20.4141 19.8783C20.4147 19.8779 20.4153 19.8775 20.4159 19.8771L27.8864 15.13C28.2749 14.8831 28.7899 14.9979 29.0367 15.3864C29.2835 15.7748 29.1687 16.2898 28.7803 16.5367L21.3008 21.2895C20.9109 21.5338 20.4601 21.6633 20 21.6633C19.5399 21.6633 19.0891 21.5338 18.6993 21.2895L18.6947 21.2867L11.2198 16.5367C10.8313 16.2898 10.7165 15.7748 10.9633 15.3864Z" fill="#A1A1A9"/>
</g>
<defs>
<clipPath id="clip0_7_734">
<rect width="40" height="40" rx="20" fill="white"/>
</clipPath>
</defs>
</svg>
