<svg width="40" height="40" viewBox="0 0 40 40" fill="none" xmlns="http://www.w3.org/2000/svg">
<g clip-path="url(#clip0_7_741)">
<rect width="40" height="40" rx="20" fill="#3F3F45"/>
<path fill-rule="evenodd" clip-rule="evenodd" d="M20 12.5C18.4529 12.5 16.9692 13.1146 15.8752 14.2085C14.7812 15.3025 14.1667 16.7862 14.1667 18.3333C14.1667 20.5041 15.6421 22.8013 17.2895 24.6547C18.0937 25.5594 18.9005 26.316 19.5071 26.8468C19.6927 27.0092 19.8589 27.1499 20 27.2668C20.1411 27.1499 20.3073 27.0092 20.4929 26.8468C21.0995 26.316 21.9063 25.5594 22.7105 24.6547C24.3579 22.8013 25.8333 20.5041 25.8333 18.3333C25.8333 16.7862 25.2188 15.3025 24.1248 14.2085C23.0308 13.1146 21.5471 12.5 20 12.5ZM20 28.3333C19.5 29 19.4998 28.9998 19.4996 28.9997L19.4991 28.9993L19.4975 28.9981L19.4926 28.9944L19.4758 28.9816C19.4614 28.9707 19.4409 28.955 19.4147 28.9346C19.3622 28.8939 19.2867 28.8348 19.1915 28.7583C19.0013 28.6054 18.7319 28.3831 18.4096 28.1011C17.7662 27.5381 16.9063 26.7322 16.0438 25.7619C14.3579 23.8653 12.5 21.1625 12.5 18.3333C12.5 16.3442 13.2902 14.4365 14.6967 13.03C16.1032 11.6235 18.0109 10.8333 20 10.8333C21.9891 10.8333 23.8968 11.6235 25.3033 13.03C26.7098 14.4365 27.5 16.3442 27.5 18.3333C27.5 21.1625 25.6421 23.8653 23.9562 25.7619C23.0937 26.7322 22.2338 27.5381 21.5904 28.1011C21.2681 28.3831 20.9987 28.6054 20.8085 28.7583C20.7133 28.8348 20.6378 28.8939 20.5853 28.9346C20.5591 28.955 20.5386 28.9707 20.5242 28.9816L20.5074 28.9944L20.5025 28.9981L20.5009 28.9993L20.5004 28.9997C20.5002 28.9998 20.5 29 20 28.3333ZM20 28.3333L20.5 29C20.2037 29.2222 19.7963 29.2222 19.5 29L20 28.3333Z" fill="#A1A1A9"/>
<path fill-rule="evenodd" clip-rule="evenodd" d="M20 16.6667C19.0795 16.6667 18.3334 17.4129 18.3334 18.3333C18.3334 19.2538 19.0795 20 20 20C20.9205 20 21.6667 19.2538 21.6667 18.3333C21.6667 17.4129 20.9205 16.6667 20 16.6667ZM16.6667 18.3333C16.6667 16.4924 18.1591 15 20 15C21.841 15 23.3334 16.4924 23.3334 18.3333C23.3334 20.1743 21.841 21.6667 20 21.6667C18.1591 21.6667 16.6667 20.1743 16.6667 18.3333Z" fill="#A1A1A9"/>
</g>
<defs>
<clipPath id="clip0_7_741">
<rect width="40" height="40" rx="20" fill="white"/>
</clipPath>
</defs>
</svg>
