<svg width="51" height="38" viewBox="0 0 51 38" fill="none" xmlns="http://www.w3.org/2000/svg">
<g clip-path="url(#clip0_7_1336)">
<path d="M0 0H50.6667V38H0V0Z" fill="#012169"/>
<path d="M5.9375 0L25.2542 14.3292L44.4917 0H50.6667V4.90833L31.6667 19.0792L50.6667 33.1708V38H44.3333L25.3333 23.8292L6.4125 38H0V33.25L18.9208 19.1583L0 5.06667V0H5.9375Z" fill="white"/>
<path d="M33.5667 22.2458L50.6667 34.8333V38L29.2125 22.2458H33.5667ZM19 23.8292L19.475 26.6L4.275 38H0L19 23.8292ZM50.6667 0V0.2375L30.9542 15.1208L31.1125 11.6375L46.7083 0H50.6667ZM0 0L18.9208 13.9333H14.1708L0 3.325V0Z" fill="#C8102E"/>
<path d="M19.0792 0V38H31.7458V0H19.0792ZM0 12.6667V25.3333H50.6667V12.6667H0Z" fill="white"/>
<path d="M0 15.2792V22.8792H50.6667V15.2792H0ZM21.6125 0V38H29.2125V0H21.6125Z" fill="#C8102E"/>
</g>
<defs>
<clipPath id="clip0_7_1336">
<rect width="50.6667" height="38" rx="6" fill="white"/>
</clipPath>
</defs>
</svg>
