<svg width="48" height="48" viewBox="0 0 48 48" fill="none" xmlns="http://www.w3.org/2000/svg">
<path d="M15.2549 22.2119C12.1176 22.2119 10 20.0281 10 16.7928C10 13.8811 12.4314 11.4546 15.7255 11.4546C19.3333 11.4546 22 14.3664 22 18.8149C22 28.9252 14.6275 32.9693 10 33.4546V29.0061C13.1373 28.4399 16.6667 25.2855 16.8235 21.8075C16.6667 21.8884 16.0392 22.2119 15.2549 22.2119Z" fill="#A1A1A9"/>
<path d="M31.2549 22.2119C28.1176 22.2119 26 20.0281 26 16.7928C26 13.8811 28.4314 11.4546 31.7255 11.4546C35.3333 11.4546 38 14.3664 38 18.8149C38 28.9252 30.6275 32.9693 26 33.4546V29.0061C29.1373 28.4399 32.6667 25.2855 32.8235 21.8075C32.6667 21.8884 32.0392 22.2119 31.2549 22.2119Z" fill="#A1A1A9"/>
</svg>
